# xmcd CD database file generated by MAGIX-FreeDB-MP3_deluxe_17 v3.0beta1
#
# Track frame offsets:
#	150
#	51150
#	120450
#	191775
#
# Disc length: 3239
#
# Revision: 2
# Processed by: cddbd v1.5.2PL0 Copyright (c) Steve Scherf et al.
# Submitted via: MAGIX-FreeDB-MP3_deluxe_17 v3.0beta1
#
DISCID=320ca504
DTITLE=Festival of Indian Music - Romantic Ragas [CD 2)
DYEAR=1998
DGENRE=Folk/Rock
TTITLE0=Raga Mishra Gara- Gat in Sitar Khani and Teentaal
TTITLE1=Raga Marubihag- Gat in Rupak Tal and Teental
TTITLE2=Raga Manji Khamaj- Gat in Tendaal
TTITLE3=Tabla Solo in Teental
EXTD=ID3G:  81
EXTT0=
EXTT1=
EXTT2=
EXTT3=
PLAYORDER=
